# xmcd CD database file
#
# Track frame offsets:
#	150
#	18412
#	48725
#	63262
#	78087
#	92837
#	114400
#	127075
#	154520
#	165862
#
# Disc length: 2410 seconds
#
# Revision: 0
# Processed by: cddbd v1.4PL0 Copyright (c) Steve Scherf et al.
# Submitted via: CDex 1.50
#
DISCID=7109680a
DTITLE=Sony Terry and Brownie McGhee - Showcase on...
DYEAR=1900
DGENRE=Blues
TTITLE0=I'm A Stranger Here
TTITLE1=Everybody's Blue
TTITLE2=Trouble In Mind
TTITLE3=Walk On
TTITLE4=Down By The Riverside
TTITLE5=Blues For The Lowlands
TTITLE6=Right On That Shore
TTITLE7=Blowin' The Fuses
TTITLE8=Cornbread, Meat and Molasses
TTITLE9=Ham and Eggs
EXTD=
EXTT0=
EXTT1=
EXTT2=
EXTT3=
EXTT4=
EXTT5=
EXTT6=
EXTT7=
EXTT8=
EXTT9=
PLAYORDER=
